<?xml version="1.0" encoding="UTF-8" standalone="no"?>
<!-- Uploaded to: SVG Repo, www.svgrepo.com, Generator: SVG Repo Mixer Tools -->
<svg width="800px" height="800px" viewBox="0 0 60 60" version="1.1" xmlns="http://www.w3.org/2000/svg" xmlns:xlink="http://www.w3.org/1999/xlink">
    
    <title>job-desktop</title>
    <desc>Created with Sketch.</desc>
    <defs>
</defs>
    <g id="People" stroke="none" stroke-width="1" fill="none" fill-rule="evenodd">
        <g id="Icon-11" fill="#000000">
            <path d="M28,27 L28,30 L32,30 L32,27 L32,22 L28,22 L28,27 Z M8,27 C8,26.448 8.448,26 9,26 L26,26 L26,22 C26,20.897 26.897,20 28,20 L32,20 C33.103,20 34,20.897 34,22 L34,26 L51,26 C51.552,26 52,26.448 52,27 C52,27.552 51.552,28 51,28 L34,28 L34,30 C34,31.103 33.103,32 32,32 L28,32 C26.897,32 26,31.103 26,30 L26,28 L9,28 C8.448,28 8,27.552 8,27 L8,27 Z M30.03,29 C30.583,29 31.03,28.552 31.03,28 C31.03,27.448 30.583,27 30.03,27 L30.02,27 C29.468,27 29.025,27.448 29.025,28 C29.025,28.552 29.478,29 30.03,29 L30.03,29 Z M7,10 C6.449,10 6,10.449 6,11 L6,40 L54,40 L54,11 C54,10.449 53.551,10 53,10 L7,10 Z M26,8 L34,8 L34,6 L26,6 L26,8 Z M22,8 L24,8 L24,5 C24,4.448 24.448,4 25,4 L35,4 C35.552,4 36,4.448 36,5 L36,8 L38,8 L38,3 C38,2.449 37.551,2 37,2 L23,2 C22.449,2 22,2.449 22,3 L22,8 Z M7,8 L20,8 L20,3 C20,1.346 21.346,0 23,0 L37,0 C38.654,0 40,1.346 40,3 L40,8 L53,8 C54.654,8 56,9.346 56,11 L56,41 C56,41.552 55.552,42 55,42 L5,42 C4.448,42 4,41.552 4,41 L4,11 C4,9.346 5.346,8 7,8 L7,8 Z M39,54 L36,54 L36,53 C36,52.448 35.552,52 35,52 C34.448,52 34,52.448 34,53 L34,55 C34,55.552 34.448,56 35,56 L39,56 C40.123,56 41.295,56.914 41.775,58 L18.225,58 C18.705,56.914 19.877,56 21,56 L31,56 C31.552,56 32,55.552 32,55 C32,54.448 31.552,54 31,54 L26,54 L26,53 C26,52.448 25.552,52 25,52 C24.448,52 24,52.448 24,53 L24,54 L21,54 C18.43,54 16,56.43 16,59 C16,59.552 16.448,60 17,60 L43,60 C43.552,60 44,59.552 44,59 C44,56.43 41.57,54 39,54 L39,54 Z M30.02,44 C29.468,44 29.025,44.448 29.025,45 C29.025,45.552 29.478,46 30.03,46 C30.583,46 31.03,45.552 31.03,45 C31.03,44.448 30.583,44 30.03,44 L30.02,44 Z M60,9 L60,45 C60,47.804 57.804,50 55,50 L5,50 C1.898,50 0,45.468 0,43 L0,9 C0.191,6.167 2.386,4 5,4 L17,4 C17.552,4 18,4.448 18,5 C18,5.552 17.552,6 17,6 L5,6 C3.252,6 2.101,7.56 1.998,9.068 L2,43 C2,45.02 3.58,48 5,48 L55,48 C56.71,48 58,46.71 58,45 L58,9 C58,7.346 56.654,6 55,6 L43,6 C42.448,6 42,5.552 42,5 C42,4.448 42.448,4 43,4 L55,4 C57.757,4 60,6.243 60,9 L60,9 Z" id="job-desktop">
</path>
        </g>
    </g>
</svg>